# xmcd CD database file
#
# Track frame offsets:
#	150
#	12935
#	55939
#	78445
#	102284
#	125694
#	141003
#	171567
#	189479
#	200491
#	258209
#
# Disc length: 4440 seconds
#
# Revision: 1
# Processed by: cddbd v1.5.1PL2 Copyright (c) Steve Scherf et al.
# Submitted via: CDex 1.51
#
DISCID=9811560b
DTITLE=Stefano di Battista - Parker's Mood
DYEAR=2004
DGENRE=Jazz
TTITLE0=Salt Peanuts
TTITLE1=Embraceable You
TTITLE2=Night In Tunisia
TTITLE3=Parker's Mood
TTITLE4=Confirmation
TTITLE5=Donna Lee
TTITLE6=Laura
TTITLE7=Hot House
TTITLE8=Congo Blues
TTITLE9=Round Midnight
TTITLE10=-- Data Track
EXTD=YEAR: 2004
EXTT0=
EXTT1=
EXTT2=
EXTT3=
EXTT4=
EXTT5=
EXTT6=
EXTT7=
EXTT8=
EXTT9=
EXTT10=
PLAYORDER=
